<mxfile host="65bd71144e">
    <diagram id="cOPPHnaynSb4PC9Ppda5" name="ページ1">
        <mxGraphModel dx="1489" dy="449" grid="1" gridSize="10" guides="1" tooltips="1" connect="1" arrows="1" fold="1" page="1" pageScale="1" pageWidth="827" pageHeight="1169" background="none" math="0" shadow="0">
            <root>
                <mxCell id="0"/>
                <mxCell id="1" parent="0"/>
                <mxCell id="12" value="「回答」をクリック" style="text;html=1;strokeColor=none;fillColor=none;align=center;verticalAlign=middle;whiteSpace=wrap;rounded=0;" parent="1" vertex="1">
                    <mxGeometry x="-621" y="363" width="160" height="30" as="geometry"/>
                </mxCell>
                <mxCell id="38" value="JAVAクイズ (○問目/10問)&lt;br&gt;&lt;br&gt;　NNN. XXXXXXXXXXXXXXXX&lt;br&gt;&amp;nbsp; &amp;nbsp; &amp;nbsp; &amp;nbsp; &amp;nbsp; &amp;nbsp; &amp;nbsp;XXXXXXXXXXXXXXXX&lt;br&gt;&amp;nbsp; &amp;nbsp; &amp;nbsp; &amp;nbsp; &amp;nbsp; &amp;nbsp; &amp;nbsp;(Nつ選択)&lt;br&gt;&lt;br&gt;&amp;nbsp; &amp;nbsp; &amp;nbsp; &amp;nbsp; &amp;nbsp; &amp;nbsp; &amp;nbsp;a. XXXXXXXXXX&amp;nbsp; ○ ○✕&lt;br&gt;&amp;nbsp; &amp;nbsp; &amp;nbsp; &amp;nbsp; &amp;nbsp; &amp;nbsp; &amp;nbsp;b. XXXXXXXXXX&amp;nbsp; ○ ○✕&lt;br&gt;&amp;nbsp; &amp;nbsp; &amp;nbsp; &amp;nbsp; &amp;nbsp; &amp;nbsp; &amp;nbsp;c. XXXXXXXXXX&amp;nbsp; ○ ○✕&lt;br&gt;&amp;nbsp; &amp;nbsp; &amp;nbsp; &amp;nbsp; &amp;nbsp; &amp;nbsp; &amp;nbsp;d. XXXXXXXXXX&amp;nbsp; ○ ○✕&lt;br&gt;&amp;nbsp; &amp;nbsp; &amp;nbsp; &amp;nbsp; &amp;nbsp; &amp;nbsp; &amp;nbsp;e. XXXXXXXXXX&amp;nbsp; ○ ○✕" style="rounded=0;whiteSpace=wrap;html=1;align=left;" parent="1" vertex="1">
                    <mxGeometry x="-458" y="213" width="180" height="205" as="geometry"/>
                </mxCell>
                <mxCell id="2" value="ログイン成功&lt;br&gt;　ようこそ{ユーザーID}さん&lt;br&gt;　&lt;u&gt;JAVAクイズ(10問)へ&lt;/u&gt;&lt;br&gt;　&lt;u&gt;トップへ&lt;/u&gt;&lt;br&gt;" style="rounded=0;whiteSpace=wrap;html=1;align=left;" parent="1" vertex="1">
                    <mxGeometry x="-793" y="42" width="180" height="130" as="geometry"/>
                </mxCell>
                <mxCell id="3" value="JAVAクイズ (○問目/10問)&lt;br&gt;&lt;br&gt;　NNN. XXXXXXXXXXXXXXXX&lt;br&gt;&amp;nbsp; &amp;nbsp; &amp;nbsp; &amp;nbsp; &amp;nbsp; &amp;nbsp; &amp;nbsp;XXXXXXXXXXXXXXXX&lt;br&gt;&amp;nbsp; &amp;nbsp; &amp;nbsp; &amp;nbsp; &amp;nbsp; &amp;nbsp; &amp;nbsp;(Nつ選択)&lt;br&gt;&lt;br&gt;&amp;nbsp; &amp;nbsp; &amp;nbsp; &amp;nbsp; &amp;nbsp; &amp;nbsp; &amp;nbsp;a. XXXXXXXXXX&amp;nbsp; ○&lt;br&gt;&amp;nbsp; &amp;nbsp; &amp;nbsp; &amp;nbsp; &amp;nbsp; &amp;nbsp; &amp;nbsp;b. XXXXXXXXXX&amp;nbsp; ○&lt;br&gt;&amp;nbsp; &amp;nbsp; &amp;nbsp; &amp;nbsp; &amp;nbsp; &amp;nbsp; &amp;nbsp;c. XXXXXXXXXX&amp;nbsp; ○&lt;br&gt;&amp;nbsp; &amp;nbsp; &amp;nbsp; &amp;nbsp; &amp;nbsp; &amp;nbsp; &amp;nbsp;d. XXXXXXXXXX&amp;nbsp; ○&lt;br&gt;&amp;nbsp; &amp;nbsp; &amp;nbsp; &amp;nbsp; &amp;nbsp; &amp;nbsp; &amp;nbsp;e. XXXXXXXXXX&amp;nbsp; ○" style="rounded=0;whiteSpace=wrap;html=1;align=left;" parent="1" vertex="1">
                    <mxGeometry x="-793" y="213" width="180" height="205" as="geometry"/>
                </mxCell>
                <mxCell id="6" value="回答" style="text;html=1;strokeColor=default;fillColor=none;align=center;verticalAlign=middle;whiteSpace=wrap;rounded=0;" parent="1" vertex="1">
                    <mxGeometry x="-669" y="394" width="48" height="21" as="geometry"/>
                </mxCell>
                <mxCell id="7" value="JAVAクイズ&amp;nbsp; &amp;nbsp; NNN点&lt;br&gt;&lt;br&gt;&amp;nbsp; &amp;nbsp; &amp;nbsp; &amp;nbsp; XXXXXXXXXXXXXX&lt;br&gt;&lt;br&gt;&amp;nbsp; &amp;nbsp; &amp;nbsp;CCYY/MM/DD&amp;nbsp; &amp;nbsp; NNN点&lt;br&gt;&amp;nbsp; &amp;nbsp; &amp;nbsp;CCYY/MM/DD&amp;nbsp; &amp;nbsp; NNN点&lt;br&gt;&lt;br&gt;" style="rounded=0;whiteSpace=wrap;html=1;align=left;" parent="1" vertex="1">
                    <mxGeometry x="-458" y="41" width="180" height="130" as="geometry"/>
                </mxCell>
                <mxCell id="14" value="ログイン成功画面" style="text;html=1;strokeColor=none;fillColor=none;align=center;verticalAlign=middle;whiteSpace=wrap;rounded=0;" parent="1" vertex="1">
                    <mxGeometry x="-783" y="13" width="160" height="38" as="geometry"/>
                </mxCell>
                <mxCell id="15" value="JAVAクイズ出題画面" style="text;html=1;strokeColor=none;fillColor=none;align=center;verticalAlign=middle;whiteSpace=wrap;rounded=0;" parent="1" vertex="1">
                    <mxGeometry x="-768" y="417" width="160" height="30" as="geometry"/>
                </mxCell>
                <mxCell id="16" value="JAVAクイズ成績画面" style="text;html=1;strokeColor=none;fillColor=none;align=center;verticalAlign=middle;whiteSpace=wrap;rounded=0;" parent="1" vertex="1">
                    <mxGeometry x="-444" y="16" width="160" height="30" as="geometry"/>
                </mxCell>
                <mxCell id="18" value="" style="endArrow=classic;html=1;exitX=-0.006;exitY=0.902;exitDx=0;exitDy=0;entryX=0;entryY=0.5;entryDx=0;entryDy=0;exitPerimeter=0;" parent="1" source="3" target="2" edge="1">
                    <mxGeometry width="50" height="50" relative="1" as="geometry">
                        <mxPoint x="-779" y="376" as="sourcePoint"/>
                        <mxPoint x="-777" y="346" as="targetPoint"/>
                        <Array as="points">
                            <mxPoint x="-817" y="398"/>
                            <mxPoint x="-817" y="107"/>
                        </Array>
                    </mxGeometry>
                </mxCell>
                <mxCell id="21" value="&lt;u&gt;中止&lt;/u&gt;" style="text;html=1;strokeColor=none;fillColor=none;align=center;verticalAlign=middle;whiteSpace=wrap;rounded=0;" parent="1" vertex="1">
                    <mxGeometry x="-709" y="394" width="48" height="21" as="geometry"/>
                </mxCell>
                <mxCell id="27" value="&lt;u&gt;中止&lt;/u&gt;" style="text;html=1;strokeColor=none;fillColor=none;align=center;verticalAlign=middle;whiteSpace=wrap;rounded=0;" parent="1" vertex="1">
                    <mxGeometry x="-373" y="394" width="48" height="21" as="geometry"/>
                </mxCell>
                <mxCell id="28" value="次へ" style="text;html=1;strokeColor=default;fillColor=none;align=center;verticalAlign=middle;whiteSpace=wrap;rounded=0;" parent="1" vertex="1">
                    <mxGeometry x="-333" y="394" width="48" height="21" as="geometry"/>
                </mxCell>
                <mxCell id="29" value="JAVAクイズ判定画面" style="text;html=1;strokeColor=none;fillColor=none;align=center;verticalAlign=middle;whiteSpace=wrap;rounded=0;" parent="1" vertex="1">
                    <mxGeometry x="-430" y="417" width="160" height="30" as="geometry"/>
                </mxCell>
                <mxCell id="33" value="「中止」をクリック&lt;br&gt;（「ログイン成功画面」&lt;br&gt;に戻る）" style="text;html=1;strokeColor=none;fillColor=none;align=center;verticalAlign=middle;whiteSpace=wrap;rounded=0;" parent="1" vertex="1">
                    <mxGeometry x="-611" y="152" width="160" height="50" as="geometry"/>
                </mxCell>
                <mxCell id="39" value="&lt;u&gt;クイズ選択&lt;/u&gt;" style="text;html=1;strokeColor=none;fillColor=none;align=center;verticalAlign=middle;whiteSpace=wrap;rounded=0;" parent="1" vertex="1">
                    <mxGeometry x="-412" y="146" width="62" height="21" as="geometry"/>
                </mxCell>
                <mxCell id="40" value="次の10問" style="text;html=1;strokeColor=default;fillColor=none;align=center;verticalAlign=middle;whiteSpace=wrap;rounded=0;" parent="1" vertex="1">
                    <mxGeometry x="-347" y="146" width="62" height="21" as="geometry"/>
                </mxCell>
                <mxCell id="13" value="" style="endArrow=classic;html=1;entryX=0;entryY=0.75;entryDx=0;entryDy=0;exitX=1;exitY=0.75;exitDx=0;exitDy=0;" parent="1" source="3" target="38" edge="1">
                    <mxGeometry width="50" height="50" relative="1" as="geometry">
                        <mxPoint x="-612" y="322" as="sourcePoint"/>
                        <mxPoint x="-457" y="315.5" as="targetPoint"/>
                    </mxGeometry>
                </mxCell>
                <mxCell id="43" value="「クイズ選択」をクリック&lt;br&gt;（クイズ選択画面へ）" style="text;html=1;strokeColor=none;fillColor=none;align=center;verticalAlign=middle;whiteSpace=wrap;rounded=0;" parent="1" vertex="1">
                    <mxGeometry x="-617" y="66" width="160" height="50" as="geometry"/>
                </mxCell>
                <mxCell id="44" value="" style="endArrow=classic;html=1;exitX=1;exitY=0.5;exitDx=0;exitDy=0;" parent="1" edge="1">
                    <mxGeometry width="50" height="50" relative="1" as="geometry">
                        <mxPoint x="-457" y="74" as="sourcePoint"/>
                        <mxPoint x="-537" y="23" as="targetPoint"/>
                        <Array as="points">
                            <mxPoint x="-537" y="74"/>
                        </Array>
                    </mxGeometry>
                </mxCell>
                <mxCell id="45" value="「次へ」をクリック&lt;br&gt;クイズ10問目到達" style="text;html=1;strokeColor=none;fillColor=none;align=center;verticalAlign=middle;whiteSpace=wrap;rounded=0;" parent="1" vertex="1">
                    <mxGeometry x="-439" y="178" width="160" height="30" as="geometry"/>
                </mxCell>
                <mxCell id="46" value="" style="endArrow=classic;html=1;exitX=1;exitY=0;exitDx=0;exitDy=0;entryX=1;entryY=0.75;entryDx=0;entryDy=0;" parent="1" target="2" edge="1">
                    <mxGeometry width="50" height="50" relative="1" as="geometry">
                        <mxPoint x="-460" y="260" as="sourcePoint"/>
                        <mxPoint x="-547" y="150" as="targetPoint"/>
                        <Array as="points">
                            <mxPoint x="-537" y="260"/>
                            <mxPoint x="-537" y="140"/>
                        </Array>
                    </mxGeometry>
                </mxCell>
                <mxCell id="47" value="" style="endArrow=classic;html=1;exitX=0;exitY=0.5;exitDx=0;exitDy=0;entryX=1;entryY=0.5;entryDx=0;entryDy=0;" parent="1" source="38" target="3" edge="1">
                    <mxGeometry width="50" height="50" relative="1" as="geometry">
                        <mxPoint x="-527" y="300" as="sourcePoint"/>
                        <mxPoint x="-477" y="250" as="targetPoint"/>
                    </mxGeometry>
                </mxCell>
                <mxCell id="48" value="「次へ」をクリック&lt;br&gt;10問目到達まで&lt;br&gt;(JAVAクイズ出題画面へ)" style="text;html=1;strokeColor=none;fillColor=none;align=center;verticalAlign=middle;whiteSpace=wrap;rounded=0;" parent="1" vertex="1">
                    <mxGeometry x="-618" y="266" width="160" height="52" as="geometry"/>
                </mxCell>
                <mxCell id="49" value="&lt;u&gt;終了&lt;/u&gt;" style="text;html=1;strokeColor=none;fillColor=none;align=center;verticalAlign=middle;whiteSpace=wrap;rounded=0;" parent="1" vertex="1">
                    <mxGeometry x="-453" y="146" width="48" height="21" as="geometry"/>
                </mxCell>
                <mxCell id="50" value="" style="endArrow=classic;html=1;exitX=1;exitY=0.25;exitDx=0;exitDy=0;" parent="1" source="7" edge="1">
                    <mxGeometry width="50" height="50" relative="1" as="geometry">
                        <mxPoint x="-527" y="210" as="sourcePoint"/>
                        <mxPoint x="-207" y="10" as="targetPoint"/>
                        <Array as="points">
                            <mxPoint x="-207" y="74"/>
                        </Array>
                    </mxGeometry>
                </mxCell>
                <mxCell id="51" value="「終了」をクリック&lt;br&gt;（アプリを終了）" style="text;html=1;strokeColor=none;fillColor=none;align=center;verticalAlign=middle;whiteSpace=wrap;rounded=0;" parent="1" vertex="1">
                    <mxGeometry x="-304" y="67" width="160" height="50" as="geometry"/>
                </mxCell>
                <mxCell id="52" value="「次の10問」をクリック&lt;br&gt;（クイズ選択が&lt;br&gt;過去に未回答 or&lt;br&gt;過去に間違えた&lt;br&gt;&amp;nbsp;を選択の場合、&lt;br&gt;クイズ選択ロジック&lt;br&gt;を通す&lt;br&gt;&lt;br&gt;エラーの場合は&lt;br&gt;「クイズ選択失敗画面」へ&lt;br&gt;&lt;br&gt;OKの場合は&lt;br&gt;JAVAクイズ出題画面へ" style="text;html=1;strokeColor=none;fillColor=none;align=center;verticalAlign=middle;whiteSpace=wrap;rounded=0;" parent="1" vertex="1">
                    <mxGeometry x="-284" y="131" width="160" height="191" as="geometry"/>
                </mxCell>
                <mxCell id="53" value="" style="endArrow=classic;html=1;exitX=1.006;exitY=0.685;exitDx=0;exitDy=0;exitPerimeter=0;" parent="1" source="7" edge="1">
                    <mxGeometry width="50" height="50" relative="1" as="geometry">
                        <mxPoint x="-497" y="200" as="sourcePoint"/>
                        <mxPoint x="-157" y="10" as="targetPoint"/>
                        <Array as="points">
                            <mxPoint x="-157" y="130"/>
                        </Array>
                    </mxGeometry>
                </mxCell>
                <mxCell id="54" value="" style="endArrow=classic;html=1;exitX=0.25;exitY=0;exitDx=0;exitDy=0;entryX=0.25;entryY=1;entryDx=0;entryDy=0;" parent="1" source="38" target="7" edge="1">
                    <mxGeometry width="50" height="50" relative="1" as="geometry">
                        <mxPoint x="-587" y="260" as="sourcePoint"/>
                        <mxPoint x="-537" y="210" as="targetPoint"/>
                    </mxGeometry>
                </mxCell>
                <mxCell id="55" value="「中止」をクリック&lt;br&gt;（「ログイン成功画面」に戻る）" style="text;html=1;strokeColor=none;fillColor=none;align=center;verticalAlign=middle;whiteSpace=wrap;rounded=0;" vertex="1" parent="1">
                    <mxGeometry x="-824" y="173" width="190" height="40" as="geometry"/>
                </mxCell>
            </root>
        </mxGraphModel>
    </diagram>
</mxfile>